<svg width="1200" height="600" viewBox="0 0 1200 600" fill="none" xmlns="http://www.w3.org/2000/svg">
<path d="M927.6 415.827C903.6 415.827 884.401 397.572 884.401 374.448C884.401 351.324 903.6 333.069 927.6 333.069C951.6 333.069 970.799 351.324 970.799 374.448C970.799 397.572 951.6 415.827 927.6 415.827Z" fill="#9244f3"/>
<path d="M970.8 374.449C970.8 397.299 951.456 415.824 927.601 415.824C903.742 415.824 884.398 397.299 884.398 374.449C884.398 351.595 903.742 333.07 927.601 333.07C951.456 333.07 970.8 351.595 970.8 374.449Z" fill="#9244f3"/>
<path d="M1107.6 320.901L1105.2 291.692C1104 273.437 1089.6 257.614 1071.6 256.398C1008 251.529 865.2 241.796 826.8 241.796C807.601 225.973 753.601 189.463 721.2 167.56C709.2 159.042 702.001 152.958 680.399 151.737C643.2 150.52 608.399 152.953 565.199 154.169C511.199 156.601 451.199 165.123 409.199 172.424C396 174.856 379.199 180.941 369.597 190.679L340.796 219.888C315.597 245.444 280.796 260.051 245.995 260.051L119.995 264.92C105.597 264.92 93.5966 274.658 89.9946 289.26L65.9986 364.712C61.1978 385.399 77.9986 403.654 103.198 406.091L110.397 407.307L157.198 412.176L183.596 414.609L195.596 415.825C202.795 417.041 208.795 413.392 212.397 407.307C212.397 407.307 227.999 379.314 230.397 375.666C230.397 414.608 262.795 446.255 302.397 446.255C339.596 446.255 369.596 419.482 374.397 385.404L386.397 412.176C388.795 418.261 395.998 423.13 401.999 423.13H403.198H404.397L441.596 424.347H455.994L779.994 427.995H797.994C811.193 427.995 824.392 421.91 833.994 412.172L856.795 382.963C861.596 418.257 891.596 445.029 928.795 445.029C965.994 445.029 995.994 418.257 1000.8 382.963H1071.6C1087.2 382.963 1102.8 374.446 1111.2 361.055L1107.6 320.901C1111.2 320.901 1110 317.248 1107.6 320.901ZM698.4 169.993L799.2 238.144C801.598 239.36 800.399 243.013 798.001 243.013L703.2 245.445L690.001 174.857C690.001 169.992 694.802 167.56 698.399 169.992L698.4 169.993ZM465.6 190.68C473.998 180.942 482.401 177.294 497.998 174.857C539.998 169.988 637.198 166.339 653.998 166.339C675.6 166.339 674.396 166.339 677.998 185.81C679.197 194.328 687.6 244.228 687.6 244.228L408 252.75L465.6 190.68ZM928.8 432.863C896.402 432.863 869.999 407.307 869.999 374.445C869.999 342.804 896.397 316.027 928.8 316.027C961.198 316.027 987.601 341.583 987.601 374.445C987.601 406.09 961.199 432.863 928.8 432.863Z" fill="#9244f3"/>
<path d="M416.997 286.016C422.08 285.892 426.499 286.631 430.256 288.234C434.067 289.835 437.021 292.169 439.117 295.234C441.214 298.3 442.313 301.964 442.415 306.227C442.515 310.435 441.592 314.149 439.646 317.368C437.698 320.533 434.859 323.008 431.129 324.795C427.451 326.526 423.072 327.454 417.989 327.578L406.431 327.862L406.808 343.684L393.528 344.01L392.159 286.626L416.997 286.016ZM416.993 316.776C420.983 316.678 423.995 315.756 426.032 314.011C428.067 312.211 429.046 309.726 428.971 306.557C428.894 303.332 427.797 300.898 425.68 299.255C423.561 297.557 420.507 296.757 416.518 296.855L405.697 297.121L406.172 317.041L416.993 316.776ZM450.814 298.474L463.602 298.16L464.655 342.264L451.867 342.578L450.814 298.474ZM457.061 292.169C454.711 292.227 452.782 291.59 451.274 290.26C449.766 288.93 448.988 287.254 448.939 285.232C448.891 283.21 449.589 281.498 451.031 280.095C452.474 278.693 454.371 277.963 456.721 277.905C459.071 277.847 460.999 278.456 462.506 279.732C464.013 281.007 464.79 282.628 464.837 284.596C464.888 286.727 464.192 288.522 462.751 289.979C461.308 291.381 459.411 292.111 457.061 292.169ZM501.523 296.573C505.622 296.473 509.361 297.338 512.74 299.169C516.173 300.944 518.887 303.529 520.882 306.925C522.875 310.267 523.926 314.205 524.034 318.741C524.143 323.277 523.281 327.29 521.451 330.78C519.619 334.216 517.032 336.931 513.689 338.927C510.4 340.867 506.706 341.888 502.607 341.988C496.978 342.126 492.509 340.459 489.2 336.986L489.691 357.562L476.903 357.876L475.471 297.869L487.685 297.569L487.806 302.652C490.885 298.748 495.457 296.722 501.523 296.573ZM500.143 331.55C503.422 331.469 506.074 330.31 508.098 328.073C510.176 325.78 511.171 322.776 511.082 319.059C510.994 315.343 509.857 312.418 507.674 310.284C505.544 308.095 502.839 307.04 499.56 307.121C496.281 307.201 493.603 308.388 491.525 310.681C489.5 312.918 488.532 315.894 488.621 319.611C488.71 323.327 489.819 326.28 491.949 328.47C494.133 330.603 496.864 331.63 500.143 331.55ZM575.8 317.635C575.804 317.799 575.749 318.948 575.636 321.084L542.272 321.903C542.939 324.621 544.411 326.744 546.69 328.274C548.968 329.804 551.774 330.528 555.108 330.446C557.403 330.39 559.417 330.012 561.15 329.314C562.937 328.559 564.578 327.425 566.073 325.912L573.053 333.123C569.013 337.979 563.003 340.506 555.024 340.702C550.051 340.824 545.629 339.975 541.758 338.156C537.885 336.283 534.87 333.65 532.711 330.258C530.552 326.866 529.42 322.984 529.316 318.612C529.213 314.294 530.131 310.389 532.071 306.897C534.065 303.348 536.814 300.574 540.321 298.574C543.881 296.518 547.874 295.435 552.301 295.327C556.618 295.221 560.548 296.054 564.09 297.826C567.632 299.598 570.428 302.209 572.479 305.659C574.583 309.052 575.69 313.044 575.8 317.635ZM552.614 304.998C549.717 305.069 547.305 305.948 545.377 307.636C543.448 309.324 542.3 311.594 541.93 314.447L563.654 313.914C563.15 311.137 561.895 308.953 559.888 307.362C557.88 305.716 555.456 304.928 552.614 304.998ZM645.515 337.824L634.066 322.11L633.411 322.126L621.852 322.41L622.234 338.395L608.954 338.721L607.584 281.338L632.423 280.728C637.505 280.603 641.925 281.342 645.681 282.945C649.493 284.547 652.446 286.881 654.543 289.946C656.639 293.011 657.738 296.676 657.84 300.938C657.942 305.201 656.991 308.916 654.989 312.082C653.04 315.192 650.2 317.613 646.468 319.345L659.778 337.474L645.515 337.824ZM644.396 301.268C644.319 298.044 643.222 295.61 641.105 293.967C638.986 292.269 635.933 291.469 631.943 291.567L621.122 291.833L621.6 311.835L632.42 311.569C636.41 311.471 639.422 310.523 641.457 308.723C643.492 306.923 644.472 304.438 644.396 301.268ZM667.28 293.16L680.068 292.846L681.121 336.95L668.333 337.264L667.28 293.16ZM673.527 286.855C671.177 286.913 669.248 286.277 667.74 284.947C666.232 283.617 665.454 281.941 665.405 279.918C665.357 277.896 666.055 276.184 667.497 274.782C668.94 273.379 670.837 272.649 673.187 272.591C675.537 272.534 677.465 273.142 678.972 274.418C680.479 275.693 681.256 277.315 681.303 279.282C681.354 281.413 680.658 283.208 679.217 284.665C677.774 286.067 675.877 286.798 673.527 286.855ZM736.46 274.729L737.912 335.556L725.697 335.856L725.576 330.773C722.498 334.677 717.953 336.702 711.941 336.85C707.788 336.952 703.995 336.115 700.562 334.34C697.184 332.564 694.498 329.978 692.503 326.581C690.508 323.185 689.456 319.219 689.348 314.683C689.24 310.147 690.101 306.134 691.931 302.644C693.762 299.154 696.322 296.439 699.611 294.499C702.955 292.558 706.704 291.536 710.857 291.434C716.486 291.296 720.928 292.964 724.182 296.439L723.672 275.043L736.46 274.729ZM713.904 326.302C717.128 326.223 719.78 325.064 721.859 322.826C723.937 320.533 724.932 317.528 724.843 313.812C724.754 310.096 723.618 307.171 721.435 305.037C719.25 302.849 716.545 301.794 713.321 301.873C710.042 301.954 707.364 303.14 705.286 305.433C703.206 307.672 702.211 310.649 702.3 314.365C702.389 318.082 703.525 321.034 705.71 323.222C707.894 325.356 710.625 326.383 713.904 326.302ZM792.426 312.317C792.43 312.481 792.375 313.631 792.262 315.766L758.898 316.585C759.565 319.303 761.037 321.427 763.316 322.957C765.594 324.486 768.4 325.211 771.734 325.129C774.029 325.072 776.043 324.695 777.777 323.996C779.563 323.241 781.204 322.107 782.699 320.594L789.679 327.805C785.639 332.662 779.629 335.188 771.651 335.384C766.677 335.506 762.255 334.657 758.384 332.839C754.512 330.965 751.496 328.332 749.337 324.94C747.178 321.548 746.047 317.666 745.942 313.294C745.839 308.977 746.758 305.072 748.697 301.579C750.691 298.03 753.441 295.256 756.947 293.256C760.507 291.2 764.5 290.118 768.927 290.009C773.244 289.903 777.174 290.736 780.716 292.508C784.258 294.281 787.055 296.892 789.105 300.341C791.21 303.734 792.317 307.726 792.426 312.317ZM769.24 299.68C766.344 299.751 763.931 300.631 762.003 302.319C760.075 304.006 758.926 306.277 758.556 309.129L780.28 308.596C779.776 305.82 778.521 303.636 776.514 302.044C774.507 300.399 772.082 299.61 769.24 299.68ZM812.763 295.413C814.242 293.244 816.253 291.581 818.796 290.425C821.393 289.268 824.386 288.648 827.774 288.564L828.056 300.369C826.632 300.295 825.674 300.263 825.183 300.276C821.521 300.365 818.677 301.474 816.65 303.602C814.621 305.675 813.656 308.761 813.754 312.86L814.251 333.682L801.462 333.996L800.41 289.892L812.624 289.593L812.763 295.413Z" fill="#E5E5E5"/>
<path d="M362.815 386.192C361.717 400.072 354.415 412.89 342.515 421.825C330.615 430.76 315.091 435.081 299.36 433.837C283.629 432.592 268.978 425.885 258.631 415.19C248.284 404.495 243.087 390.689 244.185 376.808L303.5 381.5L362.815 386.192Z" fill="#E5E5E5"/>
<path d="M350.88 381.241C350.449 386.694 348.804 391.998 346.04 396.849C343.277 401.701 339.448 406.004 334.772 409.515C330.097 413.026 324.666 415.674 318.791 417.309C312.916 418.945 306.711 419.535 300.53 419.046C294.35 418.557 288.314 416.999 282.769 414.46C277.224 411.921 272.278 408.452 268.212 404.25C264.147 400.048 261.042 395.196 259.076 389.97C257.109 384.745 256.319 379.248 256.75 373.795L303.815 377.518L350.88 381.241Z" fill="#9244f3"/>
</svg>
